<svg width="125" height="43" viewBox="0 0 125 43" fill="none" xmlns="http://www.w3.org/2000/svg">
<path d="M23.16 22.176C23.48 22.048 23.7467 21.984 23.96 21.984C24.3013 21.984 24.5573 22.112 24.728 22.368C24.8987 22.624 24.984 22.9547 24.984 23.36C24.984 24 24.824 24.544 24.504 24.992C24.2053 25.44 23.6827 25.8453 22.936 26.208C21.6773 26.8053 20.0453 27.2853 18.04 27.648C16.0347 27.9893 14.0613 28.16 12.12 28.16C9.432 28.16 7.18133 27.8613 5.368 27.264C3.55467 26.6453 2.2 25.8027 1.304 24.736C0.429333 23.6693 -0.00799996 22.464 -0.00799996 21.12C-0.00799996 19.2853 0.578667 17.728 1.752 16.448C2.94667 15.1467 4.696 14.208 7 13.632C5.74133 13.2693 4.77067 12.6293 4.088 11.712C3.42667 10.7947 3.096 9.77067 3.096 8.64C3.096 7.104 3.576 5.74933 4.536 4.576C5.51733 3.38133 6.82933 2.464 8.472 1.824C10.1147 1.184 11.9173 0.863998 13.88 0.863998C16.5253 0.863998 18.5093 1.44 19.832 2.592C21.1547 3.72267 21.816 5.19467 21.816 7.008C21.816 8.26667 21.5813 9.29067 21.112 10.08C20.664 10.848 20.0133 11.232 19.16 11.232C18.5627 11.232 18.0933 11.104 17.752 10.848C17.4107 10.5707 17.24 10.1653 17.24 9.632C17.24 9.26933 17.2933 8.87467 17.4 8.448C17.5067 7.744 17.56 7.264 17.56 7.008C17.56 6.24 17.272 5.62133 16.696 5.152C16.12 4.66133 15.16 4.416 13.816 4.416C12.0027 4.416 10.552 4.8 9.464 5.568C8.376 6.336 7.832 7.37067 7.832 8.672C7.832 9.67467 8.23733 10.5067 9.048 11.168C9.88 11.808 11.224 12.16 13.08 12.224C13.5493 12.2453 13.88 12.352 14.072 12.544C14.264 12.736 14.36 13.056 14.36 13.504C14.36 14.912 13.72 15.6267 12.44 15.648C10.6693 15.6907 9.19733 15.936 8.024 16.384C6.872 16.832 6.02933 17.408 5.496 18.112C4.984 18.7947 4.728 19.5307 4.728 20.32C4.728 21.6427 5.34667 22.6453 6.584 23.328C7.82133 23.9893 9.784 24.32 12.472 24.32C14.2427 24.32 16.1093 24.1173 18.072 23.712C20.056 23.2853 21.752 22.7733 23.16 22.176ZM24.7455 28.16C23.9348 28.16 23.3588 27.7333 23.0175 26.88C22.6975 26.0267 22.5375 24.6613 22.5375 22.784C22.5375 20.0107 22.9322 17.376 23.7215 14.88C23.9135 14.2613 24.2228 13.8133 24.6495 13.536C25.0975 13.2373 25.7162 13.088 26.5055 13.088C26.9322 13.088 27.2308 13.1413 27.4015 13.248C27.5722 13.3547 27.6575 13.5573 27.6575 13.856C27.6575 14.1973 27.4975 14.9653 27.1775 16.16C26.9642 17.0133 26.7935 17.76 26.6655 18.4C26.5375 19.04 26.4308 19.8293 26.3455 20.768C27.0495 18.9333 27.8388 17.44 28.7135 16.288C29.5882 15.136 30.4415 14.3147 31.2735 13.824C32.1268 13.3333 32.9055 13.088 33.6095 13.088C34.9962 13.088 35.6895 13.7813 35.6895 15.168C35.6895 16 35.4548 17.504 34.9855 19.68C34.5802 21.536 34.3775 22.7627 34.3775 23.36C34.3775 24.2133 34.6868 24.64 35.3055 24.64C35.7322 24.64 36.2335 24.384 36.8095 23.872C37.4068 23.3387 38.1962 22.4853 39.1775 21.312C39.4335 21.0133 39.7215 20.864 40.0415 20.864C40.3188 20.864 40.5322 20.992 40.6815 21.248C40.8522 21.504 40.9375 21.856 40.9375 22.304C40.9375 23.1573 40.7348 23.8187 40.3295 24.288C39.4122 25.4187 38.4202 26.3467 37.3535 27.072C36.3082 27.7973 35.1135 28.16 33.7695 28.16C32.6815 28.16 31.8602 27.8507 31.3055 27.232C30.7508 26.592 30.4735 25.6747 30.4735 24.48C30.4735 23.8827 30.6228 22.816 30.9215 21.28C31.1988 19.936 31.3375 19.008 31.3375 18.496C31.3375 18.1547 31.2202 17.984 30.9855 17.984C30.7082 17.984 30.3135 18.3467 29.8015 19.072C29.3108 19.776 28.7988 20.7147 28.2655 21.888C27.7535 23.0613 27.3375 24.2987 27.0175 25.6C26.7828 26.6027 26.5055 27.2853 26.1855 27.648C25.8868 27.9893 25.4068 28.16 24.7455 28.16ZM54.7325 20.928C55.0098 20.928 55.2232 21.0667 55.3725 21.344C55.5432 21.6 55.6285 21.9307 55.6285 22.336C55.6285 22.8267 55.5538 23.2107 55.4045 23.488C55.2552 23.7653 55.0205 24.0107 54.7005 24.224C52.8658 25.4613 51.5218 26.3787 50.6685 26.976L48.6205 28.352C47.8098 32.768 46.7432 36.2347 45.4205 38.752C44.1192 41.2907 42.4552 42.56 40.4285 42.56C39.3405 42.56 38.4552 42.2187 37.7725 41.536C37.0898 40.8747 36.7485 40 36.7485 38.912C36.7485 37.3973 37.3458 35.7653 38.5405 34.016C39.7352 32.288 41.9752 30.1547 45.2605 27.616L45.4525 26.368C45.0898 26.944 44.6098 27.392 44.0125 27.712C43.4365 28.0107 42.8605 28.16 42.2845 28.16C40.9618 28.16 39.9058 27.68 39.1165 26.72C38.3272 25.76 37.9325 24.5013 37.9325 22.944C37.9325 21.2373 38.3272 19.6267 39.1165 18.112C39.9058 16.576 40.9512 15.3493 42.2525 14.432C43.5752 13.4933 44.9725 13.024 46.4445 13.024C46.9138 13.024 47.2232 13.12 47.3725 13.312C47.5432 13.4827 47.6818 13.8027 47.7885 14.272C48.1938 14.1867 48.6632 14.144 49.1965 14.144C49.7298 14.144 50.1032 14.2293 50.3165 14.4C50.5512 14.5493 50.6685 14.8587 50.6685 15.328C50.6685 15.584 50.6578 15.7867 50.6365 15.936C50.5512 16.5973 50.2845 18.272 49.8365 20.96C49.7512 21.472 49.6552 22.0373 49.5485 22.656C49.4632 23.2533 49.3672 23.8933 49.2605 24.576C50.9032 23.296 52.4818 22.1653 53.9965 21.184C54.2738 21.0133 54.5192 20.928 54.7325 20.928ZM43.4365 24.928C43.9272 24.928 44.3965 24.6293 44.8445 24.032C45.2925 23.4347 45.6125 22.5813 45.8045 21.472L46.8285 16C45.9538 16.0213 45.1432 16.3627 44.3965 17.024C43.6498 17.664 43.0525 18.5173 42.6045 19.584C42.1565 20.6507 41.9325 21.7813 41.9325 22.976C41.9325 23.6373 42.0605 24.128 42.3165 24.448C42.5938 24.768 42.9672 24.928 43.4365 24.928ZM40.7805 39.456C41.3138 39.456 41.9112 38.816 42.5725 37.536C43.2552 36.256 43.9058 34.2187 44.5245 31.424C42.8818 32.832 41.6978 34.1013 40.9725 35.232C40.2472 36.3627 39.8845 37.3547 39.8845 38.208C39.8845 38.5707 39.9485 38.8693 40.0765 39.104C40.2258 39.3387 40.4605 39.456 40.7805 39.456ZM56.5813 28.16C55.6213 28.16 54.8319 27.7227 54.2133 26.848C53.6159 25.952 53.3173 24.8427 53.3173 23.52C53.3173 21.92 53.4239 20.4587 53.6373 19.136C53.8506 17.792 54.2026 16.3733 54.6933 14.88C54.9066 14.24 55.2053 13.7813 55.5893 13.504C55.9733 13.2267 56.5813 13.088 57.4133 13.088C57.8826 13.088 58.2026 13.1627 58.3733 13.312C58.5653 13.4613 58.6613 13.6853 58.6613 13.984C58.6613 14.1547 58.5439 14.7307 58.3093 15.712C58.0959 16.5013 57.9253 17.216 57.7973 17.856C57.3706 20.096 57.1573 21.5893 57.1573 22.336C57.1573 22.784 57.2106 23.104 57.3173 23.296C57.4239 23.4667 57.5946 23.552 57.8293 23.552C58.1493 23.552 58.5439 23.232 59.0133 22.592C59.5039 21.952 60.0159 20.9813 60.5493 19.68C61.1039 18.3787 61.6373 16.7787 62.1493 14.88C62.3199 14.24 62.5759 13.7813 62.9173 13.504C63.2799 13.2267 63.8133 13.088 64.5173 13.088C65.0079 13.088 65.3493 13.152 65.5413 13.28C65.7333 13.3867 65.8293 13.6 65.8293 13.92C65.8293 14.4533 65.5626 15.9147 65.0293 18.304C64.4319 21.0347 64.1333 22.72 64.1333 23.36C64.1333 23.7653 64.2186 24.0853 64.3893 24.32C64.5599 24.5333 64.7839 24.64 65.0613 24.64C65.4879 24.64 65.9893 24.384 66.5653 23.872C67.1626 23.3387 67.9519 22.4853 68.9333 21.312C69.1893 21.0133 69.4773 20.864 69.7973 20.864C70.0746 20.864 70.2879 20.992 70.4373 21.248C70.6079 21.504 70.6933 21.856 70.6933 22.304C70.6933 23.1573 70.4906 23.8187 70.0853 24.288C69.1679 25.4187 68.1759 26.3467 67.1093 27.072C66.0639 27.7973 64.8693 28.16 63.5253 28.16C62.5013 28.16 61.7439 27.7653 61.2533 26.976C60.7839 26.1867 60.5493 25.0773 60.5493 23.648C60.1866 25.0987 59.6426 26.2187 58.9173 27.008C58.1919 27.776 57.4133 28.16 56.5813 28.16ZM72.2905 10.976C71.3945 10.976 70.7225 10.7733 70.2745 10.368C69.8265 9.94133 69.6025 9.35467 69.6025 8.608C69.6025 7.86133 69.8905 7.24267 70.4665 6.752C71.0638 6.24 71.7998 5.984 72.6745 5.984C73.4638 5.984 74.1038 6.176 74.5945 6.56C75.0852 6.944 75.3305 7.488 75.3305 8.192C75.3305 9.04533 75.0532 9.728 74.4985 10.24C73.9438 10.7307 73.2078 10.976 72.2905 10.976ZM72.0345 28.16C70.6478 28.16 69.6345 27.6693 68.9945 26.688C68.3758 25.7067 68.0665 24.4053 68.0665 22.784C68.0665 21.824 68.1838 20.5973 68.4185 19.104C68.6745 17.5893 68.9945 16.1813 69.3785 14.88C69.5705 14.1973 69.8265 13.728 70.1465 13.472C70.4665 13.216 70.9785 13.088 71.6825 13.088C72.7705 13.088 73.3145 13.4507 73.3145 14.176C73.3145 14.7093 73.1118 15.9467 72.7065 17.888C72.1945 20.2347 71.9385 21.824 71.9385 22.656C71.9385 23.296 72.0238 23.7867 72.1945 24.128C72.3652 24.4693 72.6532 24.64 73.0585 24.64C73.4425 24.64 73.9225 24.3733 74.4985 23.84C75.0745 23.3067 75.8425 22.464 76.8025 21.312C77.0585 21.0133 77.3465 20.864 77.6665 20.864C77.9438 20.864 78.1572 20.992 78.3065 21.248C78.4772 21.504 78.5625 21.856 78.5625 22.304C78.5625 23.1573 78.3598 23.8187 77.9545 24.288C75.8425 26.8693 73.8692 28.16 72.0345 28.16ZM78.2455 28.16C77.4348 28.16 76.8588 27.7333 76.5175 26.88C76.1975 26.0267 76.0375 24.6613 76.0375 22.784C76.0375 20.0107 76.4322 17.376 77.2215 14.88C77.4135 14.2613 77.7228 13.8133 78.1495 13.536C78.5975 13.2373 79.2162 13.088 80.0055 13.088C80.4322 13.088 80.7308 13.1413 80.9015 13.248C81.0722 13.3547 81.1575 13.5573 81.1575 13.856C81.1575 14.1973 80.9975 14.9653 80.6775 16.16C80.4642 17.0133 80.2935 17.76 80.1655 18.4C80.0375 19.04 79.9308 19.8293 79.8455 20.768C80.5495 18.9333 81.3388 17.44 82.2135 16.288C83.0882 15.136 83.9415 14.3147 84.7735 13.824C85.6268 13.3333 86.4055 13.088 87.1095 13.088C88.4962 13.088 89.1895 13.7813 89.1895 15.168C89.1895 16 88.9548 17.504 88.4855 19.68C88.0802 21.536 87.8775 22.7627 87.8775 23.36C87.8775 24.2133 88.1868 24.64 88.8055 24.64C89.2322 24.64 89.7335 24.384 90.3095 23.872C90.9068 23.3387 91.6962 22.4853 92.6775 21.312C92.9335 21.0133 93.2215 20.864 93.5415 20.864C93.8188 20.864 94.0322 20.992 94.1815 21.248C94.3522 21.504 94.4375 21.856 94.4375 22.304C94.4375 23.1573 94.2348 23.8187 93.8295 24.288C92.9122 25.4187 91.9202 26.3467 90.8535 27.072C89.8082 27.7973 88.6135 28.16 87.2695 28.16C86.1815 28.16 85.3602 27.8507 84.8055 27.232C84.2508 26.592 83.9735 25.6747 83.9735 24.48C83.9735 23.8827 84.1228 22.816 84.4215 21.28C84.6988 19.936 84.8375 19.008 84.8375 18.496C84.8375 18.1547 84.7202 17.984 84.4855 17.984C84.2082 17.984 83.8135 18.3467 83.3015 19.072C82.8108 19.776 82.2988 20.7147 81.7655 21.888C81.2535 23.0613 80.8375 24.2987 80.5175 25.6C80.2828 26.6027 80.0055 27.2853 79.6855 27.648C79.3868 27.9893 78.9068 28.16 78.2455 28.16ZM96.0405 10.976C95.1445 10.976 94.4725 10.7733 94.0245 10.368C93.5765 9.94133 93.3525 9.35467 93.3525 8.608C93.3525 7.86133 93.6405 7.24267 94.2165 6.752C94.8138 6.24 95.5498 5.984 96.4245 5.984C97.2138 5.984 97.8538 6.176 98.3445 6.56C98.8352 6.944 99.0805 7.488 99.0805 8.192C99.0805 9.04533 98.8032 9.728 98.2485 10.24C97.6938 10.7307 96.9578 10.976 96.0405 10.976ZM95.7845 28.16C94.3978 28.16 93.3845 27.6693 92.7445 26.688C92.1258 25.7067 91.8165 24.4053 91.8165 22.784C91.8165 21.824 91.9338 20.5973 92.1685 19.104C92.4245 17.5893 92.7445 16.1813 93.1285 14.88C93.3205 14.1973 93.5765 13.728 93.8965 13.472C94.2165 13.216 94.7285 13.088 95.4325 13.088C96.5205 13.088 97.0645 13.4507 97.0645 14.176C97.0645 14.7093 96.8618 15.9467 96.4565 17.888C95.9445 20.2347 95.6885 21.824 95.6885 22.656C95.6885 23.296 95.7738 23.7867 95.9445 24.128C96.1152 24.4693 96.4032 24.64 96.8085 24.64C97.1925 24.64 97.6725 24.3733 98.2485 23.84C98.8245 23.3067 99.5925 22.464 100.553 21.312C100.809 21.0133 101.097 20.864 101.417 20.864C101.694 20.864 101.907 20.992 102.057 21.248C102.227 21.504 102.313 21.856 102.313 22.304C102.313 23.1573 102.11 23.8187 101.705 24.288C99.5925 26.8693 97.6192 28.16 95.7845 28.16ZM113.996 20.864C114.273 20.864 114.486 20.992 114.635 21.248C114.806 21.504 114.892 21.856 114.892 22.304C114.892 23.1573 114.689 23.8187 114.284 24.288C113.366 25.4187 112.364 26.3467 111.276 27.072C110.188 27.7973 108.94 28.16 107.532 28.16C103.18 28.16 101.004 25.0987 101.004 18.976C101.004 18.0373 101.036 17.088 101.1 16.128H99.8515C99.2115 16.128 98.7742 16.0107 98.5395 15.776C98.3262 15.5413 98.2195 15.168 98.2195 14.656C98.2195 13.4613 98.6995 12.864 99.6595 12.864H101.484C101.846 10.5173 102.401 8.37333 103.148 6.432C103.894 4.49067 104.79 2.944 105.836 1.792C106.902 0.639999 108.044 0.0639992 109.26 0.0639992C110.156 0.0639992 110.86 0.458666 111.372 1.248C111.884 2.03733 112.14 3.02933 112.14 4.224C112.14 7.53067 110.753 10.4107 107.98 12.864H111.564C111.905 12.864 112.15 12.9387 112.3 13.088C112.449 13.2373 112.524 13.5147 112.524 13.92C112.524 15.392 111.318 16.128 108.908 16.128H105.004C104.961 17.1947 104.94 18.0267 104.94 18.624C104.94 20.8427 105.196 22.4 105.708 23.296C106.241 24.192 107.073 24.64 108.204 24.64C109.121 24.64 109.932 24.3627 110.636 23.808C111.34 23.2533 112.172 22.4213 113.132 21.312C113.388 21.0133 113.676 20.864 113.996 20.864ZM108.396 3.136C108.076 3.136 107.713 3.54133 107.308 4.352C106.924 5.14133 106.55 6.25067 106.188 7.68C105.846 9.088 105.558 10.656 105.324 12.384C106.582 11.296 107.521 10.08 108.14 8.736C108.78 7.37067 109.1 6.13333 109.1 5.024C109.1 3.76533 108.865 3.136 108.396 3.136ZM123.486 13.088C123.977 13.088 124.318 13.152 124.51 13.28C124.702 13.408 124.798 13.6213 124.798 13.92C124.798 14.432 124.521 16.256 123.966 19.392C123.475 22.4 123.187 24.1813 123.102 24.736C122.313 30.2187 121.225 34.56 119.838 37.76C118.451 40.96 116.606 42.56 114.302 42.56C113.214 42.56 112.329 42.2187 111.646 41.536C110.963 40.8747 110.622 40 110.622 38.912C110.622 37.9093 110.846 36.8853 111.294 35.84C111.763 34.7947 112.617 33.5893 113.854 32.224C115.113 30.88 116.883 29.3333 119.166 27.584L119.262 26.848C119.411 26.0587 119.582 24.928 119.774 23.456C119.347 24.992 118.75 26.1653 117.982 26.976C117.214 27.7653 116.403 28.16 115.55 28.16C114.59 28.16 113.801 27.7227 113.182 26.848C112.585 25.952 112.286 24.8427 112.286 23.52C112.286 21.92 112.393 20.4587 112.606 19.136C112.819 17.792 113.171 16.3733 113.662 14.88C113.875 14.24 114.174 13.7813 114.558 13.504C114.942 13.2267 115.55 13.088 116.382 13.088C116.851 13.088 117.171 13.1627 117.342 13.312C117.534 13.4613 117.63 13.6853 117.63 13.984C117.63 14.1547 117.513 14.7307 117.278 15.712C117.065 16.5013 116.894 17.216 116.766 17.856C116.595 18.7307 116.446 19.5733 116.318 20.384C116.19 21.1733 116.126 21.824 116.126 22.336C116.126 23.1467 116.35 23.552 116.798 23.552C117.118 23.552 117.513 23.232 117.982 22.592C118.473 21.952 118.985 20.9813 119.518 19.68C120.073 18.3787 120.606 16.7787 121.118 14.88C121.289 14.24 121.545 13.7813 121.886 13.504C122.249 13.2267 122.782 13.088 123.486 13.088ZM114.654 39.456C115.187 39.456 115.785 38.8373 116.446 37.6C117.107 36.3627 117.769 34.304 118.43 31.424C116.787 32.8107 115.593 34.0693 114.846 35.2C114.121 36.352 113.758 37.3547 113.758 38.208C113.758 38.5707 113.822 38.8693 113.95 39.104C114.099 39.3387 114.334 39.456 114.654 39.456Z" fill="#14223D"/>
</svg>
